<?xml version="1.0" standalone="yes"?>
<svg xmlns="http://www.w3.org/2000/svg" width="512" height="512">
<path style="fill:none; stroke:none;" d="M0 0L0 512L512 512L512 0L0 0z"/>
<path style="fill:#ffffff; stroke:none;" d="M395 439C388.361 436.214 378.291 437.729 371 436.845C357.528 435.211 343.863 430.742 332 424.138C320.269 417.608 309.509 409.466 300 399.999C295.557 395.576 290.3 386.905 283.999 385.318C273.847 382.76 260.47 385 250 385C236.828 385 223.111 386.099 210 384.83C189.705 382.866 171.183 374.189 156.004 360.714C148.429 353.989 142.603 344.662 137.453 336C125.56 315.998 127 293.328 127 271L127 229C127 219.274 126.521 209.585 128.449 200C132.38 180.462 143.042 162.459 158.004 149.289C171.824 137.125 189.598 128.951 208 127.17C220.458 125.964 233.484 127 246 127C283.31 127 321.183 122.526 352 147.924C357.77 152.678 362.808 157.968 367.244 164C388.731 193.216 385 227.762 385 262C385 279.924 386.503 298.427 382.346 316C379.986 325.975 375.538 335.457 369.921 344C366.242 349.596 358.768 354.748 356.618 361C354.926 365.923 358.107 372.674 360.27 377C368.388 393.236 384.357 405.211 400 413.691C404.207 415.972 412.007 421.672 416.985 420.292C420.736 419.252 423.503 414.76 425.95 412C434.103 402.803 441.393 392.124 446.68 381C463.45 345.713 461 309.01 461 271L461 211C461 195.899 461.547 180.89 458.551 166C453.52 140.996 441.795 118.418 425.41 99C417.577 89.7176 408.012 81.8675 398 75.0286C378.618 61.7894 355.375 53.4033 332 51.1698C312.026 49.2612 291.07 51 271 51L210 51C194.865 51 179.92 50.4471 165 53.4491C141.825 58.1118 120.318 68.9912 102 83.8048C92.6854 91.3376 84.688 100.345 77.6404 110C69.5122 121.135 62.8527 133.969 58.3441 147C48.1163 176.56 51 208.226 51 239L51 301C51 314.332 50.2225 327.81 52.4352 341C57.2113 369.47 70.3943 395.882 90.0895 417C113.801 442.424 147.664 457.56 182 460.83C206.222 463.137 231.661 461 256 461C287.529 461 321.139 464.44 352 457.116C367.506 453.436 381.017 446.357 395 439z"/>
</svg>
